<?xml version="1.0" standalone="no"?>
<!DOCTYPE svg PUBLIC "-//W3C//DTD SVG 20010904//EN"
 "http://www.w3.org/TR/2001/REC-SVG-20010904/DTD/svg10.dtd">
<svg version="1.0" xmlns="http://www.w3.org/2000/svg"
 width="1024.000000pt" height="1024.000000pt" viewBox="0 0 1024.000000 1024.000000"
 preserveAspectRatio="xMidYMid meet">

<g transform="translate(0.000000,1024.000000) scale(0.100000,-0.100000)"
fill="#000000" stroke="none">
<path d="M4920 7994 c-423 -37 -761 -129 -1101 -300 -795 -398 -1360 -1123
-1533 -1966 -47 -228 -59 -356 -59 -603 0 -318 37 -581 120 -855 267 -884 936
-1576 1820 -1883 610 -212 1270 -219 1871 -18 306 103 641 287 901 497 183
147 398 372 537 559 532 720 684 1729 394 2605 -142 426 -361 780 -685 1105
-163 164 -298 275 -480 394 -361 237 -778 389 -1220 446 -116 15 -472 27 -565
19z m570 -259 c558 -76 1090 -336 1502 -733 415 -400 679 -913 774 -1502 22
-133 30 -478 15 -626 -54 -528 -247 -1012 -563 -1412 l-66 -83 -6 48 c-22 172
-50 701 -66 1238 -23 770 -51 1038 -136 1287 -16 47 -21 74 -14 76 6 2 30 18
53 36 134 102 190 288 137 457 -38 124 -118 216 -238 276 -63 31 -86 37 -159
41 -105 6 -174 -9 -246 -52 l-55 -33 -70 48 c-205 143 -513 248 -877 301 -134
19 -590 16 -728 -5 -339 -52 -654 -162 -860 -300 l-67 -45 -56 33 c-73 44
-141 59 -246 53 -108 -5 -194 -44 -277 -123 -102 -97 -147 -212 -138 -352 9
-150 74 -252 214 -337 1 -1 -11 -44 -28 -96 -70 -222 -103 -507 -119 -1010
-25 -814 -69 -1538 -91 -1524 -16 10 -177 230 -226 309 -281 453 -417 967
-400 1510 12 379 92 701 261 1050 137 282 273 473 505 706 463 465 1036 727
1706 783 100 8 453 -4 565 -19z m-10 -871 c234 -30 436 -88 616 -174 348 -167
589 -510 688 -977 46 -220 56 -354 76 -1093 12 -407 33 -825 55 -1102 8 -101
18 -220 22 -265 l6 -82 -53 -48 c-172 -155 -368 -286 -585 -393 -358 -176
-683 -255 -1095 -267 -690 -19 -1349 213 -1856 653 -48 41 -61 59 -58 76 7 39
53 663 64 848 5 96 14 328 20 515 18 599 30 847 46 965 67 510 254 856 581
1073 252 168 535 253 973 291 83 7 384 -5 500 -20z m-1867 -266 c15 -8 11 -18
-41 -86 -72 -96 -87 -120 -133 -206 l-37 -69 -25 39 c-88 133 -24 299 128 334
33 8 80 2 108 -12z m3162 -7 c75 -34 134 -117 135 -189 0 -40 -24 -99 -52
-129 l-21 -23 -62 104 c-33 57 -85 133 -113 170 -29 36 -52 68 -52 70 0 20
119 18 165 -3z"/>
<path d="M4225 6480 c-155 -18 -286 -81 -395 -190 -87 -87 -140 -172 -177
-285 -23 -70 -26 -97 -27 -210 0 -205 48 -335 174 -469 172 -182 407 -260 640
-211 172 36 307 123 405 260 170 239 186 524 43 770 -135 230 -401 365 -663
335z m223 -231 c233 -80 369 -335 307 -574 -62 -237 -297 -396 -524 -356 -233
42 -393 231 -394 466 -1 331 311 568 611 464z"/>
<path d="M4360 5918 c-82 -41 -112 -143 -67 -223 55 -98 188 -99 261 -1 29 39
29 133 0 173 -22 31 -97 73 -129 73 -11 0 -41 -10 -65 -22z"/>
<path d="M5850 6480 c-274 -34 -494 -227 -569 -500 -45 -161 -22 -375 56 -523
49 -93 174 -221 263 -270 376 -206 841 -26 980 379 63 181 40 406 -57 574 -53
92 -181 216 -268 262 -125 65 -274 94 -405 78z m219 -226 c65 -19 157 -80 211
-141 56 -62 96 -142 117 -235 69 -307 -218 -610 -530 -559 -135 22 -248 95
-319 205 -156 242 -67 577 186 701 112 55 218 64 335 29z"/>
<path d="M5751 5918 c-62 -32 -84 -66 -88 -135 -7 -102 56 -167 155 -160 88 6
144 66 145 155 1 56 -21 99 -66 129 -51 34 -95 38 -146 11z"/>
<path d="M5040 5457 c-133 -31 -230 -126 -230 -225 0 -25 -9 -35 -62 -68 -81
-49 -154 -118 -181 -169 -32 -61 -30 -156 5 -215 37 -63 76 -97 140 -123 l54
-22 3 -113 c3 -124 10 -158 40 -201 46 -64 165 -90 264 -56 37 13 49 13 91 0
100 -30 193 -15 248 40 44 44 55 82 63 220 l7 111 49 17 c106 38 163 119 164
232 0 59 -4 78 -27 117 -34 56 -95 111 -176 158 -56 32 -61 38 -62 69 -1 150
-207 270 -390 228z m120 -422 c148 -2 158 -3 210 -30 76 -38 100 -62 100 -100
0 -66 -2 -66 -351 -65 -307 0 -314 0 -331 21 -22 27 -23 67 -2 98 9 13 49 39
88 57 56 28 77 33 101 28 17 -4 100 -9 185 -9z m-110 -494 c0 -102 -2 -111
-22 -125 -29 -21 -61 -20 -86 2 -17 14 -21 33 -25 119 -3 56 -2 104 1 107 3 3
34 6 69 6 l63 0 0 -109z m274 92 c-1 -7 -2 -53 -2 -103 -2 -101 -18 -130 -70
-130 -55 0 -62 15 -63 130 0 58 0 109 0 113 1 4 31 7 69 5 46 -2 67 -7 66 -15z"/>
</g>
</svg>
